<?xml version="1.0" encoding="UTF-8" standalone="no"?>
<svg
   version="1.2"
   viewBox="0 0 468 193"
   width="468"
   height="193"
   id="svg2"
   sodipodi:docname="logo-recolored-RBR.svg"
   inkscape:version="1.4 (e7c3feb1, 2024-10-09)"
   xmlns:inkscape="http://www.inkscape.org/namespaces/inkscape"
   xmlns:sodipodi="http://sodipodi.sourceforge.net/DTD/sodipodi-0.dtd"
   xmlns="http://www.w3.org/2000/svg"
   xmlns:svg="http://www.w3.org/2000/svg">
  <defs
     id="defs2" />
  <sodipodi:namedview
     id="namedview2"
     pagecolor="#ffffff"
     bordercolor="#000000"
     borderopacity="0.25"
     inkscape:showpageshadow="2"
     inkscape:pageopacity="0.0"
     inkscape:pagecheckerboard="0"
     inkscape:deskcolor="#d1d1d1"
     inkscape:zoom="2"
     inkscape:cx="255"
     inkscape:cy="57.75"
     inkscape:window-width="1472"
     inkscape:window-height="920"
     inkscape:window-x="0"
     inkscape:window-y="36"
     inkscape:window-maximized="0"
     inkscape:current-layer="svg2" />
  <style
     id="style1">
		.s0 { fill: #000000;stroke: #000000;stroke-width: 15 } 
		.s1 { fill: #000000;stroke: #000000;stroke-width: 5 } 
		.s2 { fill: #000000 } 
	</style>
  <path
     id="M/m"
     class="s0"
     aria-label="M/m"
     d="m24 185h-16.5v-177h24.8l64.4 148.6 64.6-148.6h23.5v177h-16.5v-156h-0.5l-67.5 156h-7.2l-68.5-156h-0.6z"
     style="stroke:#cb6263;fill:#cb6263;fill-opacity:1;stroke-opacity:1" />
  <path
     id="path1"
     class="s1"
     aria-label="M/m"
     d="m280.2 14.3l-68.2 173.4 2.5 1.3 68.2-173.8z"
     style="fill:#ffffff;stroke:#00000f;stroke-opacity:1" />
  <path
     id="path2"
     class="s2"
     aria-label="M/m"
     d="m338.5 78.5h-40.3l-0.7 2.8h20.2l-32.7 103.7h19.7l18.3-58c15.2-25.8 28.5-38.5 39.7-38.5 7.8 0 11.5 4.2 11.5 13 0 3.2-0.7 7.5-2.2 12.2l-22.5 71.3h19.7l18.3-58c15.2-26 29.7-38.5 38.7-38.5 6 0 11 4.8 11 10.8 0 7.7-3.5 19.9-10.7 36.2-7.3 16.2-10.8 27.5-10.8 34 0 10.7 7 17.7 19.8 17.7 10 0 23.2-8.7 32-25.5l-3-1.2c-7 12.2-14.5 18.5-22.8 18.5-5 0-7.5-3.3-7.5-9.5 0-5 3.8-16.5 11.3-34.8 7.7-18.2 11.5-31 11.5-38.5 0-13.2-8.3-19.7-17.3-19.7-16 0-35 15.2-49.2 41.2 2.2-6.2 3.5-12.2 3.5-17.7 0-15-9.5-23.5-18.8-23.5-16 0-35 15.2-49.2 41.2h-0.3z"
     style="fill:#cb6263;fill-opacity:1" />
</svg>
